<mxfile host="app.diagrams.net" modified="2023-09-06T20:37:59.719Z" agent="Mozilla/5.0 (Windows NT 10.0; Win64; x64) AppleWebKit/537.36 (KHTML, like Gecko) Chrome/116.0.0.0 Safari/537.36 Edg/116.0.1938.69" etag="ZABxf49_NCoJOIezTA1v" version="21.6.9" type="github">
  <diagram name="Page-1" id="2YBvvXClWsGukQMizWep">
    <mxGraphModel dx="1252" dy="748" grid="1" gridSize="10" guides="1" tooltips="1" connect="1" arrows="1" fold="1" page="1" pageScale="1" pageWidth="850" pageHeight="1100" math="0" shadow="0">
      <root>
        <mxCell id="0" />
        <mxCell id="1" parent="0" />
        <mxCell id="aM9ryv3xv72pqoxQDRHE-1" value="Peraza&#39;s Pizza&lt;br&gt;App" style="shape=umlLifeline;perimeter=lifelinePerimeter;whiteSpace=wrap;html=1;container=0;dropTarget=0;collapsible=0;recursiveResize=0;outlineConnect=0;portConstraint=eastwest;newEdgeStyle={&quot;edgeStyle&quot;:&quot;elbowEdgeStyle&quot;,&quot;elbow&quot;:&quot;vertical&quot;,&quot;curved&quot;:0,&quot;rounded&quot;:0};" parent="1" vertex="1">
          <mxGeometry x="150" y="130" width="100" height="470" as="geometry" />
        </mxCell>
        <mxCell id="aM9ryv3xv72pqoxQDRHE-5" value="Calculator&amp;nbsp;" style="shape=umlLifeline;perimeter=lifelinePerimeter;whiteSpace=wrap;html=1;container=0;dropTarget=0;collapsible=0;recursiveResize=0;outlineConnect=0;portConstraint=eastwest;newEdgeStyle={&quot;edgeStyle&quot;:&quot;elbowEdgeStyle&quot;,&quot;elbow&quot;:&quot;vertical&quot;,&quot;curved&quot;:0,&quot;rounded&quot;:0};" parent="1" vertex="1">
          <mxGeometry x="420" y="130" width="100" height="470" as="geometry" />
        </mxCell>
        <mxCell id="aM9ryv3xv72pqoxQDRHE-7" value="Send Order" style="html=1;verticalAlign=bottom;endArrow=block;edgeStyle=elbowEdgeStyle;elbow=vertical;curved=0;rounded=0;" parent="1" source="aM9ryv3xv72pqoxQDRHE-2" target="aM9ryv3xv72pqoxQDRHE-6" edge="1">
          <mxGeometry relative="1" as="geometry">
            <mxPoint x="400" y="270" as="sourcePoint" />
            <Array as="points">
              <mxPoint x="385" y="260" />
            </Array>
            <mxPoint as="offset" />
          </mxGeometry>
        </mxCell>
        <mxCell id="aM9ryv3xv72pqoxQDRHE-9" value="Estimated Cost" style="html=1;verticalAlign=bottom;endArrow=block;edgeStyle=elbowEdgeStyle;elbow=vertical;curved=0;rounded=0;dashed=1;" parent="1" source="aM9ryv3xv72pqoxQDRHE-6" edge="1">
          <mxGeometry relative="1" as="geometry">
            <mxPoint x="380" y="300" as="sourcePoint" />
            <Array as="points">
              <mxPoint x="395" y="300" />
            </Array>
            <mxPoint x="210" y="300" as="targetPoint" />
          </mxGeometry>
        </mxCell>
        <mxCell id="6qEIh_2Pr0eyPfTnEmqf-8" style="edgeStyle=none;curved=1;rounded=0;orthogonalLoop=1;jettySize=auto;html=1;exitX=1;exitY=0.3333333333333333;exitDx=0;exitDy=0;exitPerimeter=0;fontSize=12;startSize=8;endSize=8;" edge="1" parent="1" source="6qEIh_2Pr0eyPfTnEmqf-1">
          <mxGeometry relative="1" as="geometry">
            <mxPoint x="140" y="200" as="targetPoint" />
          </mxGeometry>
        </mxCell>
        <mxCell id="6qEIh_2Pr0eyPfTnEmqf-9" value="Make&lt;br&gt;order" style="edgeLabel;html=1;align=center;verticalAlign=middle;resizable=0;points=[];fontSize=16;" vertex="1" connectable="0" parent="6qEIh_2Pr0eyPfTnEmqf-8">
          <mxGeometry x="-0.0286" y="-1" relative="1" as="geometry">
            <mxPoint as="offset" />
          </mxGeometry>
        </mxCell>
        <mxCell id="6qEIh_2Pr0eyPfTnEmqf-1" value="Actor" style="shape=umlActor;verticalLabelPosition=bottom;verticalAlign=top;html=1;outlineConnect=0;fontSize=16;" vertex="1" parent="1">
          <mxGeometry x="40" y="180" width="30" height="60" as="geometry" />
        </mxCell>
        <mxCell id="aM9ryv3xv72pqoxQDRHE-2" value="" style="html=1;points=[];perimeter=orthogonalPerimeter;outlineConnect=0;targetShapes=umlLifeline;portConstraint=eastwest;newEdgeStyle={&quot;edgeStyle&quot;:&quot;elbowEdgeStyle&quot;,&quot;elbow&quot;:&quot;vertical&quot;,&quot;curved&quot;:0,&quot;rounded&quot;:0};" parent="1" vertex="1">
          <mxGeometry x="195" y="250" width="10" height="190" as="geometry" />
        </mxCell>
        <mxCell id="6qEIh_2Pr0eyPfTnEmqf-10" value="Business&lt;br&gt;Entity" style="shape=umlLifeline;perimeter=lifelinePerimeter;whiteSpace=wrap;html=1;container=0;dropTarget=0;collapsible=0;recursiveResize=0;outlineConnect=0;portConstraint=eastwest;newEdgeStyle={&quot;edgeStyle&quot;:&quot;elbowEdgeStyle&quot;,&quot;elbow&quot;:&quot;vertical&quot;,&quot;curved&quot;:0,&quot;rounded&quot;:0};" vertex="1" parent="1">
          <mxGeometry x="610" y="130" width="100" height="470" as="geometry" />
        </mxCell>
        <mxCell id="6qEIh_2Pr0eyPfTnEmqf-43" value="Worker&lt;br&gt;Entity" style="shape=umlLifeline;perimeter=lifelinePerimeter;whiteSpace=wrap;html=1;container=0;dropTarget=0;collapsible=0;recursiveResize=0;outlineConnect=0;portConstraint=eastwest;newEdgeStyle={&quot;edgeStyle&quot;:&quot;elbowEdgeStyle&quot;,&quot;elbow&quot;:&quot;vertical&quot;,&quot;curved&quot;:0,&quot;rounded&quot;:0};" vertex="1" parent="1">
          <mxGeometry x="800" y="130" width="100" height="470" as="geometry" />
        </mxCell>
        <mxCell id="aM9ryv3xv72pqoxQDRHE-6" value="" style="html=1;points=[];perimeter=orthogonalPerimeter;outlineConnect=0;targetShapes=umlLifeline;portConstraint=eastwest;newEdgeStyle={&quot;edgeStyle&quot;:&quot;elbowEdgeStyle&quot;,&quot;elbow&quot;:&quot;vertical&quot;,&quot;curved&quot;:0,&quot;rounded&quot;:0};" parent="1" vertex="1">
          <mxGeometry x="465" y="250" width="10" height="220" as="geometry" />
        </mxCell>
        <mxCell id="6qEIh_2Pr0eyPfTnEmqf-25" value="Confirm" style="shape=umlFrame;whiteSpace=wrap;html=1;pointerEvents=0;recursiveResize=0;container=1;collapsible=0;width=75;fontSize=16;height=15;" vertex="1" parent="1">
          <mxGeometry x="205" y="310" width="260" height="180" as="geometry" />
        </mxCell>
        <mxCell id="6qEIh_2Pr0eyPfTnEmqf-26" value="&lt;font style=&quot;font-size: 10px;&quot;&gt;[customer accepts]&lt;/font&gt;" style="text;html=1;fontSize=16;" vertex="1" parent="6qEIh_2Pr0eyPfTnEmqf-25">
          <mxGeometry width="100" height="20" relative="1" as="geometry">
            <mxPoint y="20" as="offset" />
          </mxGeometry>
        </mxCell>
        <mxCell id="6qEIh_2Pr0eyPfTnEmqf-27" value="" style="line;strokeWidth=1;labelPosition=center;verticalLabelPosition=bottom;align=left;verticalAlign=top;spacingLeft=20;spacingTop=15;html=1;whiteSpace=wrap;fontSize=16;" vertex="1" parent="6qEIh_2Pr0eyPfTnEmqf-25">
          <mxGeometry y="90" width="260" height="10" as="geometry" />
        </mxCell>
        <mxCell id="6qEIh_2Pr0eyPfTnEmqf-28" style="edgeStyle=none;curved=1;rounded=0;orthogonalLoop=1;jettySize=auto;html=1;exitX=0.5;exitY=1;exitDx=0;exitDy=0;fontSize=12;startSize=8;endSize=8;" edge="1" parent="6qEIh_2Pr0eyPfTnEmqf-25" source="6qEIh_2Pr0eyPfTnEmqf-26" target="6qEIh_2Pr0eyPfTnEmqf-26">
          <mxGeometry relative="1" as="geometry" />
        </mxCell>
        <mxCell id="6qEIh_2Pr0eyPfTnEmqf-12" value="" style="endArrow=classic;html=1;rounded=0;fontSize=12;startSize=8;endSize=8;curved=1;" edge="1" parent="6qEIh_2Pr0eyPfTnEmqf-25">
          <mxGeometry width="50" height="50" relative="1" as="geometry">
            <mxPoint x="275" y="59" as="sourcePoint" />
            <mxPoint x="445" y="59" as="targetPoint" />
          </mxGeometry>
        </mxCell>
        <mxCell id="6qEIh_2Pr0eyPfTnEmqf-16" value="&lt;font style=&quot;font-size: 12px;&quot;&gt;Confirm Order&lt;/font&gt;" style="text;html=1;align=center;verticalAlign=middle;resizable=0;points=[];autosize=1;strokeColor=none;fillColor=none;fontSize=16;" vertex="1" parent="6qEIh_2Pr0eyPfTnEmqf-25">
          <mxGeometry x="310" y="29" width="100" height="30" as="geometry" />
        </mxCell>
        <mxCell id="aM9ryv3xv72pqoxQDRHE-8" value="Deny Order" style="html=1;verticalAlign=bottom;endArrow=open;dashed=1;endSize=8;edgeStyle=elbowEdgeStyle;elbow=vertical;curved=0;rounded=0;" parent="6qEIh_2Pr0eyPfTnEmqf-25" edge="1">
          <mxGeometry relative="1" as="geometry">
            <mxPoint y="160" as="targetPoint" />
            <Array as="points">
              <mxPoint x="167.0689655172414" y="160" />
            </Array>
            <mxPoint x="260" y="160" as="sourcePoint" />
          </mxGeometry>
        </mxCell>
        <mxCell id="6qEIh_2Pr0eyPfTnEmqf-32" value="&lt;font style=&quot;font-size: 10px;&quot;&gt;[else]&lt;/font&gt;" style="text;html=1;align=center;verticalAlign=middle;resizable=0;points=[];autosize=1;strokeColor=none;fillColor=none;fontSize=16;" vertex="1" parent="6qEIh_2Pr0eyPfTnEmqf-25">
          <mxGeometry x="-10" y="100" width="50" height="30" as="geometry" />
        </mxCell>
        <mxCell id="6qEIh_2Pr0eyPfTnEmqf-22" value="Confirm Order" style="html=1;verticalAlign=bottom;endArrow=block;edgeStyle=elbowEdgeStyle;elbow=vertical;curved=0;rounded=0;" edge="1" parent="1">
          <mxGeometry relative="1" as="geometry">
            <mxPoint x="205" y="360" as="sourcePoint" />
            <Array as="points">
              <mxPoint x="363.2758620689655" y="360" />
            </Array>
            <mxPoint x="460" y="360.5" as="targetPoint" />
            <mxPoint as="offset" />
          </mxGeometry>
        </mxCell>
        <mxCell id="6qEIh_2Pr0eyPfTnEmqf-11" value="" style="html=1;points=[];perimeter=orthogonalPerimeter;outlineConnect=0;targetShapes=umlLifeline;portConstraint=eastwest;newEdgeStyle={&quot;edgeStyle&quot;:&quot;elbowEdgeStyle&quot;,&quot;elbow&quot;:&quot;vertical&quot;,&quot;curved&quot;:0,&quot;rounded&quot;:0};" vertex="1" parent="1">
          <mxGeometry x="655" y="260" width="10" height="260" as="geometry" />
        </mxCell>
        <mxCell id="6qEIh_2Pr0eyPfTnEmqf-44" value="" style="html=1;points=[];perimeter=orthogonalPerimeter;outlineConnect=0;targetShapes=umlLifeline;portConstraint=eastwest;newEdgeStyle={&quot;edgeStyle&quot;:&quot;elbowEdgeStyle&quot;,&quot;elbow&quot;:&quot;vertical&quot;,&quot;curved&quot;:0,&quot;rounded&quot;:0};" vertex="1" parent="1">
          <mxGeometry x="845" y="320" width="10" height="190" as="geometry" />
        </mxCell>
        <mxCell id="6qEIh_2Pr0eyPfTnEmqf-52" value="" style="edgeStyle=elbowEdgeStyle;curved=0;rounded=0;orthogonalLoop=1;jettySize=auto;html=1;elbow=vertical;fontSize=12;startSize=8;endSize=8;" edge="1" parent="1">
          <mxGeometry relative="1" as="geometry">
            <mxPoint x="845" y="500" as="sourcePoint" />
            <mxPoint x="665" y="500" as="targetPoint" />
          </mxGeometry>
        </mxCell>
        <mxCell id="6qEIh_2Pr0eyPfTnEmqf-50" value="" style="edgeStyle=elbowEdgeStyle;curved=0;rounded=0;orthogonalLoop=1;jettySize=auto;html=1;elbow=vertical;fontSize=12;startSize=8;endSize=8;exitX=0.546;exitY=0.632;exitDx=0;exitDy=0;exitPerimeter=0;" edge="1" parent="1">
          <mxGeometry relative="1" as="geometry">
            <mxPoint x="664.5999999999999" y="477.03999999999996" as="sourcePoint" />
            <mxPoint x="845" y="477" as="targetPoint" />
          </mxGeometry>
        </mxCell>
        <mxCell id="6qEIh_2Pr0eyPfTnEmqf-51" value="&lt;font style=&quot;font-size: 12px;&quot;&gt;Prepare Pizza&lt;/font&gt;" style="edgeLabel;html=1;align=center;verticalAlign=middle;resizable=0;points=[];fontSize=16;" vertex="1" connectable="0" parent="6qEIh_2Pr0eyPfTnEmqf-50">
          <mxGeometry x="-0.3351" y="-2" relative="1" as="geometry">
            <mxPoint x="24" y="-14" as="offset" />
          </mxGeometry>
        </mxCell>
        <mxCell id="6qEIh_2Pr0eyPfTnEmqf-53" value="&lt;font style=&quot;font-size: 12px;&quot;&gt;Deliver Pizza&lt;/font&gt;" style="edgeLabel;html=1;align=center;verticalAlign=middle;resizable=0;points=[];fontSize=16;" vertex="1" connectable="0" parent="6qEIh_2Pr0eyPfTnEmqf-50">
          <mxGeometry x="-0.3351" y="-2" relative="1" as="geometry">
            <mxPoint x="24" y="31" as="offset" />
          </mxGeometry>
        </mxCell>
        <mxCell id="6qEIh_2Pr0eyPfTnEmqf-59" value="" style="edgeStyle=elbowEdgeStyle;curved=0;rounded=0;orthogonalLoop=1;jettySize=auto;html=1;elbow=vertical;fontSize=12;startSize=8;endSize=8;exitX=0.546;exitY=0.632;exitDx=0;exitDy=0;exitPerimeter=0;" edge="1" parent="1">
          <mxGeometry relative="1" as="geometry">
            <mxPoint x="665" y="394.5" as="sourcePoint" />
            <mxPoint x="845" y="394.5" as="targetPoint" />
          </mxGeometry>
        </mxCell>
        <mxCell id="6qEIh_2Pr0eyPfTnEmqf-60" value="&lt;font style=&quot;font-size: 12px;&quot;&gt;Get order details&lt;/font&gt;" style="edgeLabel;html=1;align=center;verticalAlign=middle;resizable=0;points=[];fontSize=16;" vertex="1" connectable="0" parent="6qEIh_2Pr0eyPfTnEmqf-59">
          <mxGeometry x="-0.3351" y="-2" relative="1" as="geometry">
            <mxPoint x="24" y="-17" as="offset" />
          </mxGeometry>
        </mxCell>
        <mxCell id="6qEIh_2Pr0eyPfTnEmqf-68" value="Deliver Pizza" style="html=1;verticalAlign=bottom;endArrow=open;dashed=1;endSize=8;edgeStyle=elbowEdgeStyle;elbow=vertical;curved=0;rounded=0;" edge="1" parent="1" source="6qEIh_2Pr0eyPfTnEmqf-10">
          <mxGeometry relative="1" as="geometry">
            <mxPoint x="470" y="530" as="targetPoint" />
            <Array as="points">
              <mxPoint x="562.5689655172414" y="530" />
            </Array>
            <mxPoint x="655.5" y="530" as="sourcePoint" />
          </mxGeometry>
        </mxCell>
        <mxCell id="6qEIh_2Pr0eyPfTnEmqf-69" value="Deliver Pizza" style="html=1;verticalAlign=bottom;endArrow=open;dashed=1;endSize=8;edgeStyle=elbowEdgeStyle;elbow=vertical;curved=0;rounded=0;" edge="1" parent="1" target="aM9ryv3xv72pqoxQDRHE-1">
          <mxGeometry relative="1" as="geometry">
            <mxPoint x="275.5" y="569" as="targetPoint" />
            <Array as="points">
              <mxPoint x="368.0689655172414" y="569" />
            </Array>
            <mxPoint x="465.5" y="569" as="sourcePoint" />
          </mxGeometry>
        </mxCell>
      </root>
    </mxGraphModel>
  </diagram>
</mxfile>
